%TF.GenerationSoftware,Altium Limited,Altium Designer,21.2.1 (34)*%
G04 Layer_Color=255*
%FSLAX26Y26*%
%MOIN*%
%TF.SameCoordinates,9B619AE5-86D3-421A-82E6-E0B3A417AA1F*%
%TF.FilePolarity,Positive*%
%TF.FileFunction,Pads,Bot*%
%TF.Part,Single*%
G01*
G75*
%TA.AperFunction,SMDPad,CuDef*%
%ADD10R,0.036614X0.038583*%
%TA.AperFunction,ComponentPad*%
%ADD22C,0.062992*%
%ADD23C,0.078740*%
%ADD24R,0.078740X0.078740*%
%ADD25R,0.070866X0.062000*%
%ADD26C,0.070866*%
D10*
X3505315Y2240000D02*
D03*
X3444685D02*
D03*
X3579685Y2245000D02*
D03*
X3640315D02*
D03*
X3469370Y2095000D02*
D03*
X3530000D02*
D03*
D22*
X4010000Y1908464D02*
D03*
Y2625000D02*
D03*
X3255275D02*
D03*
Y1908464D02*
D03*
D23*
X4129000Y2181000D02*
D03*
D24*
Y2281000D02*
D03*
D25*
X3460000Y1795000D02*
D03*
X3770000D02*
D03*
X3260000Y2235000D02*
D03*
D26*
X3460000Y1895000D02*
D03*
Y1995000D02*
D03*
X3770000Y1895000D02*
D03*
Y1995000D02*
D03*
X3260000Y2035000D02*
D03*
Y2135000D02*
D03*
%TF.MD5,48c13c394dc1be8476d649c187a0d12a*%
M02*
