%TF.GenerationSoftware,Altium Limited,Altium Designer,21.2.1 (34)*%
G04 Layer_Physical_Order=2*
G04 Layer_Color=16711680*
%FSLAX26Y26*%
%MOIN*%
%TF.SameCoordinates,9B619AE5-86D3-421A-82E6-E0B3A417AA1F*%
%TF.FilePolarity,Positive*%
%TF.FileFunction,Copper,L2,Bot,Signal*%
%TF.Part,Single*%
G01*
G75*
%TA.AperFunction,SMDPad,CuDef*%
%ADD10R,0.036614X0.038583*%
%TA.AperFunction,Conductor*%
%ADD18C,0.010000*%
%ADD19C,0.030000*%
%TA.AperFunction,ComponentPad*%
%ADD22C,0.062992*%
%ADD23C,0.078740*%
%ADD24R,0.078740X0.078740*%
%ADD25R,0.070866X0.062000*%
%ADD26C,0.070866*%
%TA.AperFunction,ViaPad*%
%ADD27C,0.024000*%
G36*
X4235000Y2520000D02*
Y2020000D01*
X3880000Y1665000D01*
X3380000D01*
X3025000Y2020000D01*
Y2520000D01*
X3380000Y2875000D01*
X3880000D01*
X4235000Y2520000D01*
D02*
G37*
%LPC*%
G36*
X4005000Y2713255D02*
X3999928Y2712246D01*
X3995628Y2709372D01*
X3992754Y2705072D01*
X3991745Y2700000D01*
Y2660189D01*
X3990082Y2659500D01*
X3981831Y2653169D01*
X3975500Y2644918D01*
X3971521Y2635311D01*
X3970163Y2625000D01*
X3971521Y2614689D01*
X3975500Y2605082D01*
X3981831Y2596831D01*
X3990082Y2590500D01*
X3991745Y2589811D01*
Y2435490D01*
X3949510Y2393255D01*
X3775315D01*
X3770242Y2392246D01*
X3765942Y2389372D01*
X3648909Y2272339D01*
X3648838Y2272291D01*
X3614008D01*
Y2217709D01*
X3666622D01*
Y2252562D01*
X3780805Y2366745D01*
X3955000D01*
X3960072Y2367754D01*
X3964372Y2370628D01*
X4014372Y2420628D01*
X4017246Y2424928D01*
X4018255Y2430000D01*
Y2586250D01*
X4020311Y2586521D01*
X4029918Y2590500D01*
X4038169Y2596831D01*
X4044500Y2605082D01*
X4048479Y2614689D01*
X4049837Y2625000D01*
X4048479Y2635311D01*
X4044500Y2644918D01*
X4038169Y2653169D01*
X4029918Y2659500D01*
X4020311Y2663479D01*
X4018255Y2663750D01*
Y2700000D01*
X4017246Y2705072D01*
X4014372Y2709372D01*
X4010072Y2712246D01*
X4005000Y2713255D01*
D02*
G37*
G36*
X3255275Y2664837D02*
X3244965Y2663479D01*
X3235357Y2659500D01*
X3227106Y2653169D01*
X3220775Y2644918D01*
X3216796Y2635311D01*
X3215438Y2625000D01*
X3216796Y2614689D01*
X3220775Y2605082D01*
X3227106Y2596831D01*
X3235357Y2590500D01*
X3242020Y2587740D01*
Y2469330D01*
X3243029Y2464257D01*
X3245903Y2459957D01*
X3431430Y2274429D01*
Y2267291D01*
X3418378D01*
Y2212709D01*
X3470992D01*
Y2267291D01*
X3465779D01*
X3462417Y2272291D01*
X3462940Y2274920D01*
X3461931Y2279992D01*
X3459058Y2284292D01*
X3457940Y2285410D01*
Y2349920D01*
X3456931Y2354992D01*
X3454058Y2359292D01*
X3449758Y2362165D01*
X3444685Y2363174D01*
X3439613Y2362165D01*
X3435313Y2359292D01*
X3432439Y2354992D01*
X3431430Y2349920D01*
Y2318452D01*
X3426811Y2316539D01*
X3268530Y2474820D01*
Y2587740D01*
X3275193Y2590500D01*
X3283444Y2596831D01*
X3289775Y2605082D01*
X3293754Y2614689D01*
X3295112Y2625000D01*
X3293754Y2635311D01*
X3289775Y2644918D01*
X3283444Y2653169D01*
X3275193Y2659500D01*
X3265586Y2663479D01*
X3255275Y2664837D01*
D02*
G37*
G36*
X3303433Y2274000D02*
X3216567D01*
Y2196000D01*
X3303433D01*
Y2274000D01*
D02*
G37*
G36*
X4176370Y2328370D02*
X4081630D01*
Y2304451D01*
X3916000D01*
X3907026Y2302666D01*
X3899418Y2297582D01*
X3730286Y2128451D01*
X3684714D01*
X3603451Y2209714D01*
Y2217709D01*
X3605992D01*
Y2272291D01*
X3553378D01*
Y2268451D01*
X3505315D01*
X3499487Y2267291D01*
X3479008D01*
Y2212709D01*
X3531622D01*
Y2221549D01*
X3553378D01*
Y2217709D01*
X3556549D01*
Y2200000D01*
X3558334Y2191026D01*
X3563418Y2183418D01*
X3658418Y2088418D01*
X3666026Y2083334D01*
X3675000Y2081549D01*
X3681614D01*
X3682196Y2081160D01*
X3690000Y2079608D01*
X3697804Y2081160D01*
X3698386Y2081549D01*
X3740000D01*
X3748974Y2083334D01*
X3756582Y2088418D01*
X3925714Y2257549D01*
X4081630D01*
Y2233630D01*
X4176370D01*
Y2328370D01*
D02*
G37*
G36*
X3495677Y2122291D02*
X3443063D01*
Y2067709D01*
X3456641D01*
X3457124Y2065281D01*
X3459997Y2060981D01*
X3474720Y2046258D01*
X3474470Y2045000D01*
X3475244Y2041109D01*
X3471699Y2037666D01*
X3470889Y2037374D01*
X3460000Y2038808D01*
X3448662Y2037315D01*
X3438096Y2032939D01*
X3429023Y2025977D01*
X3422061Y2016904D01*
X3417685Y2006338D01*
X3416192Y1995000D01*
X3417685Y1983662D01*
X3422061Y1973096D01*
X3429023Y1964023D01*
X3438096Y1957061D01*
X3448662Y1952685D01*
X3460000Y1951192D01*
X3471338Y1952685D01*
X3481904Y1957061D01*
X3490977Y1964023D01*
X3496752Y1971549D01*
X3733248D01*
X3739023Y1964023D01*
X3748096Y1957061D01*
X3758662Y1952685D01*
X3770000Y1951192D01*
X3781338Y1952685D01*
X3791904Y1957061D01*
X3800977Y1964023D01*
X3807939Y1973096D01*
X3812315Y1983662D01*
X3813808Y1995000D01*
X3812315Y2006338D01*
X3807939Y2016904D01*
X3800977Y2025977D01*
X3791904Y2032939D01*
X3781338Y2037315D01*
X3770000Y2038808D01*
X3758662Y2037315D01*
X3748096Y2032939D01*
X3739023Y2025977D01*
X3733248Y2018451D01*
X3500650D01*
X3499309Y2020395D01*
X3501559Y2025940D01*
X3502665Y2026160D01*
X3509281Y2030581D01*
X3513701Y2037196D01*
X3515253Y2045000D01*
X3513701Y2052804D01*
X3509281Y2059419D01*
X3502665Y2063840D01*
X3499348Y2064499D01*
X3495677Y2067709D01*
Y2122291D01*
D02*
G37*
G36*
X4005000Y2123451D02*
X3810000D01*
X3801026Y2121666D01*
X3793418Y2116582D01*
X3788334Y2108974D01*
X3786549Y2100000D01*
X3788334Y2091026D01*
X3793418Y2083418D01*
X3801026Y2078334D01*
X3810000Y2076549D01*
X3981549D01*
Y2045000D01*
X3983334Y2036026D01*
X3988418Y2028418D01*
X3996026Y2023334D01*
X4005000Y2021549D01*
X4013974Y2023334D01*
X4021582Y2028418D01*
X4026666Y2036026D01*
X4028451Y2045000D01*
Y2075000D01*
Y2100000D01*
X4026666Y2108974D01*
X4021582Y2116582D01*
X4013974Y2121666D01*
X4005000Y2123451D01*
D02*
G37*
G36*
X3260000Y2078808D02*
X3248662Y2077315D01*
X3238096Y2072939D01*
X3229023Y2065977D01*
X3222061Y2056904D01*
X3217685Y2046338D01*
X3216192Y2035000D01*
X3217685Y2023662D01*
X3222061Y2013096D01*
X3229023Y2004023D01*
X3238096Y1997061D01*
X3248662Y1992685D01*
X3260000Y1991192D01*
X3271338Y1992685D01*
X3281904Y1997061D01*
X3290977Y2004023D01*
X3297939Y2013096D01*
X3302315Y2023662D01*
X3303808Y2035000D01*
X3302315Y2046338D01*
X3297939Y2056904D01*
X3290977Y2065977D01*
X3281904Y2072939D01*
X3271338Y2077315D01*
X3260000Y2078808D01*
D02*
G37*
G36*
X3770000Y1938808D02*
X3758662Y1937315D01*
X3748096Y1932939D01*
X3739023Y1925977D01*
X3733248Y1918451D01*
X3496752D01*
X3490977Y1925977D01*
X3481904Y1932939D01*
X3471338Y1937315D01*
X3460000Y1938808D01*
X3448662Y1937315D01*
X3438096Y1932939D01*
X3429023Y1925977D01*
X3422061Y1916904D01*
X3417685Y1906338D01*
X3416192Y1895000D01*
X3417685Y1883662D01*
X3422061Y1873096D01*
X3429023Y1864023D01*
X3438096Y1857061D01*
X3448662Y1852685D01*
X3460000Y1851192D01*
X3471338Y1852685D01*
X3481904Y1857061D01*
X3490977Y1864023D01*
X3496752Y1871549D01*
X3733248D01*
X3739023Y1864023D01*
X3748096Y1857061D01*
X3758662Y1852685D01*
X3770000Y1851192D01*
X3781338Y1852685D01*
X3791904Y1857061D01*
X3800977Y1864023D01*
X3807939Y1873096D01*
X3812315Y1883662D01*
X3813808Y1895000D01*
X3812315Y1906338D01*
X3807939Y1916904D01*
X3800977Y1925977D01*
X3791904Y1932939D01*
X3781338Y1937315D01*
X3770000Y1938808D01*
D02*
G37*
G36*
X3813433Y1834000D02*
X3726567D01*
Y1818451D01*
X3503433D01*
Y1834000D01*
X3416567D01*
Y1756000D01*
X3503433D01*
Y1771549D01*
X3726567D01*
Y1756000D01*
X3813433D01*
Y1834000D01*
D02*
G37*
%LPD*%
D10*
X3505315Y2240000D02*
D03*
X3444685D02*
D03*
X3579685Y2245000D02*
D03*
X3640315D02*
D03*
X3469370Y2095000D02*
D03*
X3530000D02*
D03*
D18*
X3494723Y2045000D02*
X3494862D01*
X3469370Y2070353D02*
X3494723Y2045000D01*
X3469370Y2070353D02*
Y2095000D01*
X4005000Y2430000D02*
Y2700000D01*
X3955000Y2380000D02*
X4005000Y2430000D01*
X3775315Y2380000D02*
X3955000D01*
X3655315Y2260984D02*
X3656299D01*
X3775315Y2380000D01*
X3640315Y2245000D02*
Y2245984D01*
X3655315Y2260984D01*
X3255275Y2469330D02*
X3449685Y2274920D01*
X3444685Y2245000D02*
Y2349920D01*
X3255275Y2469330D02*
Y2625000D01*
D19*
X3460000Y1795000D02*
X3770000D01*
X3460000Y1895000D02*
X3770000D01*
X3460000Y1995000D02*
X3770000D01*
X3675000Y2105000D02*
X3740000D01*
X3916000Y2281000D01*
X4129000D01*
X3810000Y2100000D02*
X4005000D01*
Y2075000D02*
Y2100000D01*
Y2045000D02*
Y2075000D01*
X3580000Y2200000D02*
X3675000Y2105000D01*
X3580000Y2200000D02*
Y2240709D01*
X3579685Y2241024D02*
Y2245000D01*
Y2241024D02*
X3580000Y2240709D01*
X3505315Y2245000D02*
X3579685D01*
D22*
X4010000Y1908464D02*
D03*
Y2625000D02*
D03*
X3255275D02*
D03*
Y1908464D02*
D03*
D23*
X4129000Y2181000D02*
D03*
D24*
Y2281000D02*
D03*
D25*
X3460000Y1795000D02*
D03*
X3770000D02*
D03*
X3260000Y2235000D02*
D03*
D26*
X3460000Y1895000D02*
D03*
Y1995000D02*
D03*
X3770000Y1895000D02*
D03*
Y1995000D02*
D03*
X3260000Y2035000D02*
D03*
Y2135000D02*
D03*
D27*
X3494862Y2045000D02*
D03*
X4005000Y2100000D02*
D03*
X3810000D02*
D03*
X4005000Y2075000D02*
D03*
X3885000Y2065000D02*
D03*
X4005000Y2045000D02*
D03*
X3444685Y2245000D02*
D03*
X3690000Y2100000D02*
D03*
X3640315Y2245000D02*
D03*
X3175000Y2505000D02*
D03*
Y2405000D02*
D03*
X3885000Y2155000D02*
D03*
X3450000Y2760000D02*
D03*
%TF.MD5,df36086d35e737e09cb2c9df7f44b512*%
M02*
