%TF.GenerationSoftware,Altium Limited,Altium Designer,21.2.1 (34)*%
G04 Layer_Color=16711935*
%FSLAX26Y26*%
%MOIN*%
%TF.SameCoordinates,9B619AE5-86D3-421A-82E6-E0B3A417AA1F*%
%TF.FilePolarity,Negative*%
%TF.FileFunction,Soldermask,Bot*%
%TF.Part,Single*%
G01*
G75*
%TA.AperFunction,SMDPad,CuDef*%
%ADD32R,0.044614X0.046583*%
%TA.AperFunction,ComponentPad*%
%ADD33C,0.070992*%
%ADD34C,0.086740*%
%ADD35R,0.086740X0.086740*%
%ADD36R,0.078866X0.070000*%
%ADD37C,0.078866*%
%TA.AperFunction,ViaPad*%
%ADD38C,0.020000*%
D32*
X3505315Y2240000D02*
D03*
X3444685D02*
D03*
X3579685Y2245000D02*
D03*
X3640315D02*
D03*
X3469370Y2095000D02*
D03*
X3530000D02*
D03*
D33*
X4010000Y1908464D02*
D03*
Y2625000D02*
D03*
X3255275D02*
D03*
Y1908464D02*
D03*
D34*
X4129000Y2181000D02*
D03*
D35*
Y2281000D02*
D03*
D36*
X3460000Y1795000D02*
D03*
X3770000D02*
D03*
X3260000Y2235000D02*
D03*
D37*
X3460000Y1895000D02*
D03*
Y1995000D02*
D03*
X3770000Y1895000D02*
D03*
Y1995000D02*
D03*
X3260000Y2035000D02*
D03*
Y2135000D02*
D03*
D38*
X3494862Y2045000D02*
D03*
X4005000Y2100000D02*
D03*
X3810000D02*
D03*
X4005000Y2075000D02*
D03*
X3885000Y2065000D02*
D03*
X4005000Y2045000D02*
D03*
X3444685Y2245000D02*
D03*
X3690000Y2100000D02*
D03*
X3640315Y2245000D02*
D03*
X3175000Y2505000D02*
D03*
Y2405000D02*
D03*
X3885000Y2155000D02*
D03*
X3450000Y2760000D02*
D03*
%TF.MD5,00028b86f3f14d18056fd810df0d34c0*%
M02*
