%TF.GenerationSoftware,Altium Limited,Altium Designer,21.2.1 (34)*%
G04 Layer_Color=8388736*
%FSLAX26Y26*%
%MOIN*%
%TF.SameCoordinates,9B619AE5-86D3-421A-82E6-E0B3A417AA1F*%
%TF.FilePolarity,Negative*%
%TF.FileFunction,Soldermask,Top*%
%TF.Part,Single*%
G01*
G75*
%TA.AperFunction,SMDPad,CuDef*%
%ADD32R,0.044614X0.046583*%
%TA.AperFunction,ComponentPad*%
%ADD33C,0.070992*%
%ADD34C,0.086740*%
%ADD35R,0.086740X0.086740*%
%ADD36R,0.078866X0.070000*%
%ADD37C,0.078866*%
%TA.AperFunction,ViaPad*%
%ADD38C,0.020000*%
%TA.AperFunction,SMDPad,CuDef*%
%ADD41O,0.032803X0.081425*%
%ADD42R,0.046583X0.044614*%
%ADD43R,0.052488X0.078866*%
%ADD44R,0.047370X0.029654*%
%ADD45R,0.047370X0.040677*%
%ADD46R,0.086740X0.106425*%
%ADD47R,0.039496X0.045402*%
D32*
X3864370Y2440000D02*
D03*
X3925000D02*
D03*
X3329370Y2675000D02*
D03*
X3390000D02*
D03*
X3975630Y2240000D02*
D03*
X3915000D02*
D03*
D33*
X4010000Y1908464D02*
D03*
Y2625000D02*
D03*
X3255275D02*
D03*
Y1908464D02*
D03*
D34*
X4129000Y2181000D02*
D03*
D35*
Y2281000D02*
D03*
D36*
X3460000Y1795000D02*
D03*
X3770000D02*
D03*
X3260000Y2235000D02*
D03*
D37*
X3460000Y1895000D02*
D03*
Y1995000D02*
D03*
X3770000Y1895000D02*
D03*
Y1995000D02*
D03*
X3260000Y2035000D02*
D03*
Y2135000D02*
D03*
D38*
X3494862Y2045000D02*
D03*
X4005000Y2100000D02*
D03*
X3810000D02*
D03*
X4005000Y2075000D02*
D03*
X3885000Y2065000D02*
D03*
X4005000Y2045000D02*
D03*
X3444685Y2245000D02*
D03*
X3690000Y2100000D02*
D03*
X3640315Y2245000D02*
D03*
X3175000Y2505000D02*
D03*
Y2405000D02*
D03*
X3885000Y2155000D02*
D03*
X3450000Y2760000D02*
D03*
D41*
X3540000Y2035548D02*
D03*
X3590000D02*
D03*
X3640000D02*
D03*
X3690000D02*
D03*
X3540000Y2246768D02*
D03*
X3590000D02*
D03*
X3640000D02*
D03*
X3690000D02*
D03*
D42*
X3430000Y2385315D02*
D03*
Y2324685D02*
D03*
X3365000Y2184685D02*
D03*
Y2245315D02*
D03*
D43*
X4003661Y2065000D02*
D03*
X3886339D02*
D03*
X3236339Y2410000D02*
D03*
X3353661D02*
D03*
X4003661Y2160000D02*
D03*
X3886339D02*
D03*
X3353661Y2505000D02*
D03*
X3236339D02*
D03*
D44*
X3940123Y2297599D02*
D03*
Y2334997D02*
D03*
Y2372395D02*
D03*
X3829879D02*
D03*
Y2334997D02*
D03*
Y2297599D02*
D03*
D45*
X3996457Y2525000D02*
D03*
X3903543D02*
D03*
D46*
X3490236Y2595000D02*
D03*
X3769764D02*
D03*
D47*
X3326567Y2757000D02*
D03*
X3397433D02*
D03*
%TF.MD5,30a52a2e366b20c64f25102af10ecbec*%
M02*
