%TF.GenerationSoftware,Altium Limited,Altium Designer,21.2.1 (34)*%
G04 Layer_Color=2752767*
%FSLAX26Y26*%
%MOIN*%
%TF.SameCoordinates,9B619AE5-86D3-421A-82E6-E0B3A417AA1F*%
%TF.FilePolarity,Positive*%
%TF.FileFunction,Drawing*%
%TF.Part,Single*%
G01*
G75*
%TA.AperFunction,NonConductor*%
%ADD54C,0.005000*%
%ADD55C,0.006667*%
D54*
X3990000Y1888464D02*
Y1928464D01*
X4030000D01*
Y1888464D01*
X3990000D01*
Y2605000D02*
Y2645000D01*
X4030000D01*
Y2605000D01*
X3990000D01*
X3235275D02*
Y2645000D01*
X3275275D01*
Y2605000D01*
X3235275D01*
Y1888464D02*
Y1928464D01*
X3275275D01*
Y1888464D01*
X3235275D01*
X3494862Y2025000D02*
X3474862Y2065000D01*
X3514862D01*
X3494862Y2025000D01*
X4005000Y2080000D02*
X3985000Y2120000D01*
X4025000D01*
X4005000Y2080000D01*
X3810000D02*
X3790000Y2120000D01*
X3830000D01*
X3810000Y2080000D01*
X4005000Y2055000D02*
X3985000Y2095000D01*
X4025000D01*
X4005000Y2055000D01*
X3885000Y2045000D02*
X3865000Y2085000D01*
X3905000D01*
X3885000Y2045000D01*
X4005000Y2025000D02*
X3985000Y2065000D01*
X4025000D01*
X4005000Y2025000D01*
X3444685Y2225000D02*
X3424685Y2265000D01*
X3464685D01*
X3444685Y2225000D01*
X3690000Y2080000D02*
X3670000Y2120000D01*
X3710000D01*
X3690000Y2080000D01*
X3640315Y2225000D02*
X3620315Y2265000D01*
X3660315D01*
X3640315Y2225000D01*
X3175000Y2485000D02*
X3155000Y2525000D01*
X3195000D01*
X3175000Y2485000D01*
Y2385000D02*
X3155000Y2425000D01*
X3195000D01*
X3175000Y2385000D01*
X3885000Y2135000D02*
X3865000Y2175000D01*
X3905000D01*
X3885000Y2135000D01*
X3450000Y2740000D02*
X3430000Y2780000D01*
X3470000D01*
X3450000Y2740000D01*
D55*
X4149000Y2181000D02*
G03*
X4149000Y2181000I-20000J0D01*
G01*
Y2281000D02*
G03*
X4149000Y2281000I-20000J0D01*
G01*
X3480000Y1795000D02*
G03*
X3480000Y1795000I-20000J0D01*
G01*
Y1895000D02*
G03*
X3480000Y1895000I-20000J0D01*
G01*
Y1995000D02*
G03*
X3480000Y1995000I-20000J0D01*
G01*
X3790000Y1795000D02*
G03*
X3790000Y1795000I-20000J0D01*
G01*
Y1895000D02*
G03*
X3790000Y1895000I-20000J0D01*
G01*
Y1995000D02*
G03*
X3790000Y1995000I-20000J0D01*
G01*
X3280000Y2035000D02*
G03*
X3280000Y2035000I-20000J0D01*
G01*
Y2135000D02*
G03*
X3280000Y2135000I-20000J0D01*
G01*
Y2235000D02*
G03*
X3280000Y2235000I-20000J0D01*
G01*
%TF.MD5,2d3e6a01d8e85171fbdf1f9b4e19bcd4*%
M02*
