%TF.GenerationSoftware,Altium Limited,Altium Designer,21.2.1 (34)*%
G04 Layer_Physical_Order=1*
G04 Layer_Color=255*
%FSLAX26Y26*%
%MOIN*%
%TF.SameCoordinates,9B619AE5-86D3-421A-82E6-E0B3A417AA1F*%
%TF.FilePolarity,Positive*%
%TF.FileFunction,Copper,L1,Top,Signal*%
%TF.Part,Single*%
G01*
G75*
%TA.AperFunction,SMDPad,CuDef*%
%ADD10R,0.036614X0.038583*%
%ADD11O,0.024803X0.073425*%
%ADD12R,0.038583X0.036614*%
%ADD13R,0.044488X0.070866*%
%ADD14R,0.039370X0.021654*%
%ADD15R,0.039370X0.032677*%
%ADD16R,0.078740X0.098425*%
%ADD17R,0.031496X0.037402*%
%TA.AperFunction,Conductor*%
%ADD18C,0.010000*%
%ADD19C,0.030000*%
%ADD20C,0.015000*%
%ADD21C,0.020000*%
%TA.AperFunction,ComponentPad*%
%ADD22C,0.062992*%
%ADD23C,0.078740*%
%ADD24R,0.078740X0.078740*%
%ADD25R,0.070866X0.062000*%
%ADD26C,0.070866*%
%TA.AperFunction,ViaPad*%
%ADD27C,0.024000*%
G36*
X4235000Y2520000D02*
Y2020000D01*
X3880000Y1665000D01*
X3380000D01*
X3025000Y2020000D01*
Y2520000D01*
X3380000Y2875000D01*
X3880000D01*
X4235000Y2520000D01*
D02*
G37*
%LPC*%
G36*
X3416307Y2702291D02*
X3363693D01*
Y2647709D01*
X3416307D01*
Y2702291D01*
D02*
G37*
G36*
X3350315Y2783701D02*
X3302819D01*
Y2730299D01*
X3313312D01*
Y2702291D01*
X3303063D01*
Y2647709D01*
X3355677D01*
Y2702291D01*
X3339822D01*
Y2730299D01*
X3350315D01*
Y2783701D01*
D02*
G37*
G36*
X4010000Y2664837D02*
X3999689Y2663479D01*
X3990082Y2659500D01*
X3981831Y2653169D01*
X3975500Y2644918D01*
X3971521Y2635311D01*
X3970163Y2625000D01*
X3971521Y2614689D01*
X3975500Y2605082D01*
X3981831Y2596831D01*
X3990082Y2590500D01*
X3999689Y2586521D01*
X4010000Y2585163D01*
X4020311Y2586521D01*
X4029918Y2590500D01*
X4038169Y2596831D01*
X4044500Y2605082D01*
X4048479Y2614689D01*
X4049837Y2625000D01*
X4048479Y2635311D01*
X4044500Y2644918D01*
X4038169Y2653169D01*
X4029918Y2659500D01*
X4020311Y2663479D01*
X4010000Y2664837D01*
D02*
G37*
G36*
X3255275D02*
X3244965Y2663479D01*
X3235357Y2659500D01*
X3227106Y2653169D01*
X3220775Y2644918D01*
X3216796Y2635311D01*
X3215438Y2625000D01*
X3216796Y2614689D01*
X3220775Y2605082D01*
X3227106Y2596831D01*
X3235357Y2590500D01*
X3244965Y2586521D01*
X3255275Y2585163D01*
X3265586Y2586521D01*
X3275193Y2590500D01*
X3283444Y2596831D01*
X3289775Y2605082D01*
X3293754Y2614689D01*
X3295112Y2625000D01*
X3293754Y2635311D01*
X3289775Y2644918D01*
X3283444Y2653169D01*
X3275193Y2659500D01*
X3265586Y2663479D01*
X3255275Y2664837D01*
D02*
G37*
G36*
X3537606Y2652213D02*
X3442866D01*
Y2633157D01*
X3360000D01*
X3356879Y2632536D01*
X3354232Y2630768D01*
X3352464Y2628121D01*
X3351843Y2625000D01*
Y2568157D01*
X3315001D01*
X3315000Y2568157D01*
X3311878Y2567536D01*
X3309232Y2565768D01*
X3294232Y2550768D01*
X3292464Y2548122D01*
X3291843Y2545000D01*
X3291843Y2544999D01*
Y2328157D01*
X3220001D01*
X3220000Y2328157D01*
X3216878Y2327536D01*
X3214232Y2325768D01*
X3199232Y2310768D01*
X3197464Y2308122D01*
X3196843Y2305000D01*
X3196843Y2304999D01*
Y2185000D01*
X3197464Y2181879D01*
X3199232Y2179232D01*
X3201879Y2177464D01*
X3205000Y2176843D01*
X3325000D01*
X3328121Y2177464D01*
X3330768Y2179232D01*
X3332536Y2181879D01*
X3333157Y2185000D01*
Y2217926D01*
X3337709Y2219008D01*
Y2219008D01*
X3392291D01*
Y2271622D01*
X3378255D01*
Y2289510D01*
X3397709Y2308964D01*
X3402709Y2306893D01*
Y2298378D01*
X3457291D01*
Y2311430D01*
X3584825D01*
X3603941Y2292314D01*
X3600754Y2288430D01*
X3597960Y2290297D01*
X3590000Y2291880D01*
X3582040Y2290297D01*
X3575291Y2285787D01*
X3570782Y2279039D01*
X3569199Y2271079D01*
Y2225311D01*
X3569148Y2225055D01*
X3569199Y2224799D01*
Y2222457D01*
X3570782Y2214497D01*
X3575291Y2207748D01*
X3579662Y2204828D01*
X3582253Y2202236D01*
X3582933Y2198819D01*
X3588016Y2191211D01*
X3652809Y2126418D01*
X3660418Y2121334D01*
X3669392Y2119549D01*
X3669544D01*
X3672060Y2114549D01*
X3668334Y2108974D01*
X3666549Y2100000D01*
Y2035548D01*
X3668334Y2026574D01*
X3669199Y2025280D01*
Y2011237D01*
X3670782Y2003276D01*
X3675291Y1996528D01*
X3682040Y1992019D01*
X3690000Y1990436D01*
X3697960Y1992019D01*
X3704709Y1996528D01*
X3709218Y2003276D01*
X3710801Y2011237D01*
Y2025280D01*
X3711666Y2026574D01*
X3713451Y2035548D01*
Y2100000D01*
X3711666Y2108974D01*
X3707940Y2114549D01*
X3710456Y2119549D01*
X3757286D01*
X3793418Y2083418D01*
X3801026Y2078334D01*
X3810000Y2076549D01*
X3818974Y2078334D01*
X3826582Y2083418D01*
X3831666Y2091026D01*
X3833451Y2100000D01*
X3831666Y2108974D01*
X3826582Y2116582D01*
X3783582Y2159582D01*
X3775974Y2164666D01*
X3767000Y2166451D01*
X3679105D01*
X3647182Y2198374D01*
X3648816Y2203811D01*
X3654709Y2207748D01*
X3659218Y2214497D01*
X3660801Y2222457D01*
Y2271079D01*
X3659218Y2279039D01*
X3658619Y2279935D01*
X3660976Y2284344D01*
X3802194D01*
Y2278772D01*
X3857564D01*
Y2316426D01*
X3802194D01*
Y2310854D01*
X3622891D01*
X3599687Y2334058D01*
X3595387Y2336931D01*
X3590315Y2337940D01*
X3457291D01*
Y2350992D01*
X3413157D01*
Y2359008D01*
X3457291D01*
Y2411622D01*
X3413157D01*
Y2421621D01*
X3448379Y2456843D01*
X3530000D01*
X3533121Y2457464D01*
X3535768Y2459232D01*
X3537536Y2461879D01*
X3538157Y2465000D01*
Y2625000D01*
X3537606Y2627767D01*
Y2652213D01*
D02*
G37*
G36*
X3540000Y2291880D02*
X3532040Y2290297D01*
X3525291Y2285787D01*
X3520782Y2279039D01*
X3519199Y2271079D01*
Y2260023D01*
X3458201D01*
X3452489Y2263840D01*
X3444685Y2265392D01*
X3436881Y2263840D01*
X3430266Y2259419D01*
X3425845Y2252804D01*
X3424293Y2245000D01*
X3425845Y2237196D01*
X3430266Y2230581D01*
X3436881Y2226160D01*
X3444685Y2224608D01*
X3452489Y2226160D01*
X3459104Y2230581D01*
X3461064Y2233513D01*
X3519199D01*
Y2222457D01*
X3520782Y2214497D01*
X3525291Y2207748D01*
X3532040Y2203239D01*
X3540000Y2201656D01*
X3547960Y2203239D01*
X3554709Y2207748D01*
X3559218Y2214497D01*
X3560801Y2222457D01*
Y2271079D01*
X3559218Y2279039D01*
X3554709Y2285787D01*
X3547960Y2290297D01*
X3540000Y2291880D01*
D02*
G37*
G36*
X4176370Y2328370D02*
X4081630D01*
Y2233630D01*
X4176370D01*
Y2328370D01*
D02*
G37*
G36*
X3540000Y2080660D02*
X3532040Y2079077D01*
X3525291Y2074568D01*
X3520782Y2067819D01*
X3519199Y2059859D01*
Y2050795D01*
X3514199Y2050302D01*
X3513701Y2052804D01*
X3509281Y2059419D01*
X3502665Y2063840D01*
X3494862Y2065392D01*
X3487058Y2063840D01*
X3480443Y2059419D01*
X3476022Y2052804D01*
X3474470Y2045000D01*
X3475244Y2041109D01*
X3471699Y2037666D01*
X3470889Y2037374D01*
X3460000Y2038808D01*
X3448662Y2037315D01*
X3438096Y2032939D01*
X3429023Y2025977D01*
X3422061Y2016904D01*
X3417685Y2006338D01*
X3416192Y1995000D01*
X3417685Y1983662D01*
X3422061Y1973096D01*
X3429023Y1964023D01*
X3438096Y1957061D01*
X3448662Y1952685D01*
X3460000Y1951192D01*
X3471338Y1952685D01*
X3481904Y1957061D01*
X3490977Y1964023D01*
X3497939Y1973096D01*
X3502315Y1983662D01*
X3503808Y1995000D01*
X3502315Y2006338D01*
X3497939Y2016904D01*
X3499851Y2022625D01*
X3502543Y2023446D01*
X3503578Y2022754D01*
X3508650Y2021745D01*
X3519199D01*
Y2011237D01*
X3520782Y2003276D01*
X3525291Y1996528D01*
X3532040Y1992019D01*
X3540000Y1990436D01*
X3547960Y1992019D01*
X3554709Y1996528D01*
X3559218Y2003276D01*
X3560801Y2011237D01*
Y2059859D01*
X3559218Y2067819D01*
X3554709Y2074568D01*
X3547960Y2079077D01*
X3540000Y2080660D01*
D02*
G37*
G36*
X3865000Y2673157D02*
X3864999Y2673157D01*
X3715000D01*
X3711879Y2672536D01*
X3709232Y2670768D01*
X3707464Y2668121D01*
X3706843Y2665000D01*
X3706843Y2550001D01*
X3706843Y2550000D01*
X3707464Y2546879D01*
X3709232Y2544232D01*
X3709233Y2544232D01*
X3827295Y2426169D01*
X3826387Y2420762D01*
X3820506Y2414881D01*
X3817633Y2410581D01*
X3816624Y2405509D01*
Y2391222D01*
X3802194D01*
Y2353568D01*
X3857564D01*
Y2387082D01*
X3857564Y2388829D01*
X3862564Y2390901D01*
X3886843Y2366621D01*
X3886843Y2360000D01*
X3887464Y2356878D01*
X3889232Y2354232D01*
X3891879Y2352464D01*
X3895000Y2351843D01*
X3912438D01*
Y2316170D01*
Y2278772D01*
X3924518D01*
X3925438Y2273772D01*
X3918957Y2267291D01*
X3888693D01*
Y2212709D01*
X3941307D01*
Y2244942D01*
X3944704Y2248338D01*
X3949323Y2246425D01*
Y2212709D01*
X3980211D01*
Y2203433D01*
X3973417D01*
Y2116567D01*
X3980211D01*
Y2108433D01*
X3973417D01*
Y2021567D01*
X4033905D01*
Y2108433D01*
X4027112D01*
Y2116567D01*
X4033905D01*
Y2203433D01*
X4027112D01*
Y2240000D01*
X4025327Y2248974D01*
X4020459Y2256260D01*
Y2303753D01*
X4018674Y2312727D01*
X4013590Y2320335D01*
X3985917Y2348008D01*
X3985568Y2348241D01*
X3985685Y2354177D01*
X3985768Y2354232D01*
X3987536Y2356879D01*
X3988157Y2360000D01*
Y2500661D01*
X3987536Y2503783D01*
X3985768Y2506429D01*
X3983121Y2508197D01*
X3980000Y2508818D01*
X3976928D01*
Y2541947D01*
X3977772Y2542511D01*
X3979358Y2543571D01*
X3981126Y2546217D01*
X3983197Y2551217D01*
X3983197Y2551217D01*
X3983818Y2554339D01*
X3983197Y2557460D01*
X3981429Y2560106D01*
X3870768Y2670768D01*
X3868121Y2672536D01*
X3865000Y2673157D01*
D02*
G37*
G36*
X3260000Y2078808D02*
X3248662Y2077315D01*
X3238096Y2072939D01*
X3229023Y2065977D01*
X3222061Y2056904D01*
X3217685Y2046338D01*
X3216192Y2035000D01*
X3217685Y2023662D01*
X3222061Y2013096D01*
X3229023Y2004023D01*
X3238096Y1997061D01*
X3248662Y1992685D01*
X3260000Y1991192D01*
X3271338Y1992685D01*
X3281904Y1997061D01*
X3290977Y2004023D01*
X3297939Y2013096D01*
X3302315Y2023662D01*
X3303808Y2035000D01*
X3302315Y2046338D01*
X3297939Y2056904D01*
X3290977Y2065977D01*
X3281904Y2072939D01*
X3271338Y2077315D01*
X3260000Y2078808D01*
D02*
G37*
G36*
X3640000Y2080660D02*
X3632040Y2079077D01*
X3625291Y2074568D01*
X3620782Y2067819D01*
X3619199Y2059859D01*
Y2011237D01*
X3620782Y2003276D01*
X3625291Y1996528D01*
X3632040Y1992019D01*
X3640000Y1990436D01*
X3647960Y1992019D01*
X3654709Y1996528D01*
X3659218Y2003276D01*
X3660801Y2011237D01*
Y2059859D01*
X3659218Y2067819D01*
X3654709Y2074568D01*
X3647960Y2079077D01*
X3640000Y2080660D01*
D02*
G37*
G36*
X3770000Y2038808D02*
X3758662Y2037315D01*
X3748096Y2032939D01*
X3739023Y2025977D01*
X3732061Y2016904D01*
X3727685Y2006338D01*
X3726192Y1995000D01*
X3727685Y1983662D01*
X3732061Y1973096D01*
X3739023Y1964023D01*
X3748096Y1957061D01*
X3758662Y1952685D01*
X3770000Y1951192D01*
X3781338Y1952685D01*
X3791904Y1957061D01*
X3800977Y1964023D01*
X3807939Y1973096D01*
X3812315Y1983662D01*
X3813808Y1995000D01*
X3812315Y2006338D01*
X3807939Y2016904D01*
X3800977Y2025977D01*
X3791904Y2032939D01*
X3781338Y2037315D01*
X3770000Y2038808D01*
D02*
G37*
G36*
Y1938808D02*
X3758662Y1937315D01*
X3748096Y1932939D01*
X3739023Y1925977D01*
X3732061Y1916904D01*
X3727685Y1906338D01*
X3726192Y1895000D01*
X3727685Y1883662D01*
X3732061Y1873096D01*
X3739023Y1864023D01*
X3748096Y1857061D01*
X3758662Y1852685D01*
X3770000Y1851192D01*
X3781338Y1852685D01*
X3791904Y1857061D01*
X3800977Y1864023D01*
X3807939Y1873096D01*
X3812315Y1883662D01*
X3813808Y1895000D01*
X3812315Y1906338D01*
X3807939Y1916904D01*
X3800977Y1925977D01*
X3791904Y1932939D01*
X3781338Y1937315D01*
X3770000Y1938808D01*
D02*
G37*
G36*
X3460000D02*
X3448662Y1937315D01*
X3438096Y1932939D01*
X3429023Y1925977D01*
X3422061Y1916904D01*
X3417685Y1906338D01*
X3416192Y1895000D01*
X3417685Y1883662D01*
X3422061Y1873096D01*
X3429023Y1864023D01*
X3438096Y1857061D01*
X3448662Y1852685D01*
X3460000Y1851192D01*
X3471338Y1852685D01*
X3481904Y1857061D01*
X3490977Y1864023D01*
X3497939Y1873096D01*
X3502315Y1883662D01*
X3503808Y1895000D01*
X3502315Y1906338D01*
X3497939Y1916904D01*
X3490977Y1925977D01*
X3481904Y1932939D01*
X3471338Y1937315D01*
X3460000Y1938808D01*
D02*
G37*
G36*
X3813433Y1834000D02*
X3726567D01*
Y1756000D01*
X3813433D01*
Y1834000D01*
D02*
G37*
G36*
X3503433D02*
X3416567D01*
Y1756000D01*
X3503433D01*
Y1834000D01*
D02*
G37*
%LPD*%
G36*
X3530000Y2465000D02*
X3445000D01*
X3405000Y2425000D01*
Y2350992D01*
X3402709D01*
Y2337940D01*
X3394685D01*
X3389613Y2336931D01*
X3385313Y2334058D01*
X3355628Y2304372D01*
X3352754Y2300072D01*
X3351745Y2295000D01*
Y2280000D01*
X3340000D01*
X3325000Y2265000D01*
Y2185000D01*
X3205000D01*
Y2305000D01*
X3220000Y2320000D01*
X3300000D01*
Y2545000D01*
X3315000Y2560000D01*
X3360000D01*
Y2625000D01*
X3530000D01*
Y2465000D01*
D02*
G37*
G36*
X3975661Y2554339D02*
X3973590Y2549339D01*
X3968772D01*
Y2500661D01*
X3980000D01*
Y2360000D01*
X3895000D01*
X3895000Y2370000D01*
X3857291Y2407709D01*
X3859362Y2412709D01*
X3890677D01*
Y2467291D01*
X3838063D01*
Y2434008D01*
X3833063Y2431937D01*
X3715000Y2550000D01*
X3715000Y2665000D01*
X3865000D01*
X3975661Y2554339D01*
D02*
G37*
D10*
X3864370Y2440000D02*
D03*
X3925000D02*
D03*
X3329370Y2675000D02*
D03*
X3390000D02*
D03*
X3975630Y2240000D02*
D03*
X3915000D02*
D03*
D11*
X3540000Y2035548D02*
D03*
X3590000D02*
D03*
X3640000D02*
D03*
X3690000D02*
D03*
X3540000Y2246768D02*
D03*
X3590000D02*
D03*
X3640000D02*
D03*
X3690000D02*
D03*
D12*
X3430000Y2385315D02*
D03*
Y2324685D02*
D03*
X3365000Y2184685D02*
D03*
Y2245315D02*
D03*
D13*
X4003661Y2065000D02*
D03*
X3886339D02*
D03*
X3236339Y2410000D02*
D03*
X3353661D02*
D03*
X4003661Y2160000D02*
D03*
X3886339D02*
D03*
X3353661Y2505000D02*
D03*
X3236339D02*
D03*
D14*
X3940123Y2297599D02*
D03*
Y2334997D02*
D03*
Y2372395D02*
D03*
X3829879D02*
D03*
Y2334997D02*
D03*
Y2297599D02*
D03*
D15*
X3996457Y2525000D02*
D03*
X3903543D02*
D03*
D16*
X3490236Y2595000D02*
D03*
X3769764D02*
D03*
D17*
X3326567Y2757000D02*
D03*
X3397433D02*
D03*
D18*
X3590315Y2324685D02*
X3617401Y2297599D01*
X3829879D01*
X3430000Y2324685D02*
X3590315D01*
X3394685D02*
X3430000D01*
X3365000Y2295000D02*
X3394685Y2324685D01*
X3365000Y2245315D02*
Y2295000D01*
X3533162Y2035000D02*
X3533710Y2035548D01*
X3508650Y2035000D02*
X3533162D01*
X3533710Y2035548D02*
X3540000D01*
X3494862Y2045000D02*
X3498650D01*
X3508650Y2035000D01*
X3444685Y2245000D02*
X3446453Y2246768D01*
X3540000D01*
X3827478Y2300000D02*
X3829879Y2297599D01*
X3326567Y2677803D02*
X3329370Y2675000D01*
X3326567Y2677803D02*
Y2757000D01*
X3844524Y2420154D02*
X3845508D01*
X3829879Y2405509D02*
X3844524Y2420154D01*
X3864370Y2439016D02*
Y2440000D01*
X3845508Y2420154D02*
X3864370Y2439016D01*
X3829879Y2372395D02*
Y2405509D01*
D19*
X3353661Y2396811D02*
X3365157Y2385315D01*
X3353661Y2396811D02*
Y2410000D01*
X3365157Y2385315D02*
X3430000D01*
X4003661Y2160000D02*
Y2240000D01*
X3997008Y2244291D02*
X4001299Y2240000D01*
X4003661Y2100000D02*
Y2160000D01*
Y2065000D02*
Y2100000D01*
X3940123Y2331426D02*
X3969335D01*
X3604599Y2207793D02*
X3669392Y2143000D01*
X3767000D02*
X3810000Y2100000D01*
X3669392Y2143000D02*
X3767000D01*
X3592599Y2225055D02*
X3604599Y2213055D01*
Y2207793D02*
Y2213055D01*
X3690000Y2035548D02*
Y2100000D01*
X4001299Y2240000D02*
X4003622D01*
X3969335Y2331426D02*
X3997008Y2303753D01*
Y2244291D02*
Y2303753D01*
D20*
X3941892Y2267876D02*
Y2297599D01*
X3915000Y2240984D02*
X3941892Y2267876D01*
X3915000Y2240000D02*
Y2240984D01*
D21*
X3940123Y2297599D02*
X3941892D01*
X3942719Y2296772D01*
D22*
X4010000Y1908464D02*
D03*
Y2625000D02*
D03*
X3255275D02*
D03*
Y1908464D02*
D03*
D23*
X4129000Y2181000D02*
D03*
D24*
Y2281000D02*
D03*
D25*
X3460000Y1795000D02*
D03*
X3770000D02*
D03*
X3260000Y2235000D02*
D03*
D26*
X3460000Y1895000D02*
D03*
Y1995000D02*
D03*
X3770000Y1895000D02*
D03*
Y1995000D02*
D03*
X3260000Y2035000D02*
D03*
Y2135000D02*
D03*
D27*
X3494862Y2045000D02*
D03*
X4005000Y2100000D02*
D03*
X3810000D02*
D03*
X4005000Y2075000D02*
D03*
X3885000Y2065000D02*
D03*
X4005000Y2045000D02*
D03*
X3444685Y2245000D02*
D03*
X3690000Y2100000D02*
D03*
X3640315Y2245000D02*
D03*
X3175000Y2505000D02*
D03*
Y2405000D02*
D03*
X3885000Y2155000D02*
D03*
X3450000Y2760000D02*
D03*
%TF.MD5,7c19b1486d5b531752d5a0c552dc93db*%
M02*
